<svg xmlns="http://www.w3.org/2000/svg" preserveAspectRatio="xMidYMid" viewBox="0 0 100 100">
  <path fill="#e9e9eb" d="M50 .1a50 50 0 0 0-15.8 97.5c2.5.5 3.4-1 3.4-2.4v-9.3c-14 3-16.9-6-16.9-6-2.3-5.7-5.6-7.2-5.6-7.2-4.5-3.1.4-3 .4-3 5 .3 7.7 5 7.7 5 4.4 7.7 11.6 5.5 14.5 4.2.5-3.2 1.7-5.4 3.2-6.7C29.8 71 18 66.7 18 47.5c0-5.4 2-9.9 5.1-13.4a18 18 0 0 1 .5-13.2S28 19.5 37.5 26a48 48 0 0 1 25 0c9.6-6.5 13.8-5.1 13.8-5.1a18 18 0 0 1 .5 13.2c3.2 3.5 5.1 8 5.1 13.4 0 19.2-11.7 23.5-22.8 24.7 1.8 1.6 3.4 4.6 3.4 9.3l-.1 13.7c0 1.3.9 2.9 3.4 2.4A50 50 0 0 0 50 .2zM18.7 71.4c0 .2-.5.3-.8.1-.4-.1-.6-.5-.5-.7.1-.3.5-.3.9-.2.3.2.6.5.4.8zm2.5 2.2c-.3.2-.7 0-1-.3-.4-.3-.4-.8-.2-1 .3-.2.7-.1 1 .2.4.4.4.8.2 1zm1.7 2.8c-.3.2-.8 0-1.1-.5-.4-.4-.4-1 0-1.1.3-.3.8 0 1 .4.4.4.4 1 0 1.2zm2.8 3.2c-.2.3-.8.3-1.3-.2-.4-.4-.5-1-.2-1.2.2-.3.8-.3 1.3.2.4.4.5 1 .2 1.2zm3.7 1.1c-.1.4-.7.6-1.2.4-.6-.1-1-.6-.9-1 .2-.4.7-.6 1.3-.4.6.2 1 .6.8 1zm4.2.5c0 .4-.5.7-1 .8-.6 0-1.1-.4-1.1-.8s.4-.7 1-.7 1.1.3 1.1.7zm4.1-.2c.1.4-.3.9-.9 1-.6 0-1.1-.2-1.2-.6 0-.4.4-.8 1-1 .5 0 1 .2 1.1.6z"/>
</svg>